<svg width="200" height="60" xmlns="http://www.w3.org/2000/svg">
  <!-- Background -->
  <rect width="200" height="60" fill="transparent"/>
  
  <!-- Palm Tree Icon -->
  <g transform="translate(20, 15)">
    <!-- Tree trunk -->
    <rect x="13" y="20" width="4" height="15" fill="#8B4513" rx="1"/>
    
    <!-- Palm leaves -->
    <path d="M 15 20 Q 5 10, 0 8 Q 5 12, 15 18" fill="#059669"/>
    <path d="M 15 20 Q 25 10, 30 8 Q 25 12, 15 18" fill="#059669"/>
    <path d="M 15 18 Q 10 5, 8 0 Q 12 5, 15 15" fill="#10b981"/>
    <path d="M 15 18 Q 20 5, 22 0 Q 18 5, 15 15" fill="#10b981"/>
    <path d="M 15 16 Q 0 8, -3 5 Q 3 10, 15 14" fill="#059669"/>
    <path d="M 15 16 Q 30 8, 33 5 Q 27 10, 15 14" fill="#059669"/>
  </g>
  
  <!-- Text -->
  <text x="55" y="28" font-family="'Outfit', sans-serif" font-size="20" font-weight="700" fill="#0891b2">
    Ceylon Cabs
  </text>
  <text x="55" y="45" font-family="'Poppins', sans-serif" font-size="10" font-weight="400" fill="#6b7280">
    Explore Sri Lanka
  </text>
</svg>
